<?xml version="1.0" encoding="UTF-8"?>
<svg width="300px" height="300px" viewBox="0 0 300 300" version="1.1" xmlns="http://www.w3.org/2000/svg" xmlns:xlink="http://www.w3.org/1999/xlink">
    <!-- Generator: Sketch 49.3 (51167) - http://www.bohemiancoding.com/sketch -->
    <title>Artboard</title>
    <desc>Created with Sketch.</desc>
    <defs></defs>
    <g id="Artboard" stroke="none" stroke-width="1" fill="none" fill-rule="evenodd">
        <path d="M85.8818359,156 L83.7089844,156 L83.7089844,138.385254 L85.8452148,138.385254 L95.4887695,152.21582 L95.5986328,152.21582 L95.5986328,138.385254 L97.7714844,138.385254 L97.7714844,156 L95.6352539,156 L85.9916992,142.218262 L85.8818359,142.218262 L85.8818359,156 Z M106.121094,156.219727 C102.605469,156.219727 100.237305,153.692871 100.237305,149.652344 C100.237305,145.599609 102.605469,143.084961 106.121094,143.084961 C109.624512,143.084961 111.992676,145.599609 111.992676,149.652344 C111.992676,153.692871 109.624512,156.219727 106.121094,156.219727 Z M106.121094,154.352051 C108.367188,154.352051 109.832031,152.643066 109.832031,149.652344 C109.832031,146.661621 108.367188,144.952637 106.121094,144.952637 C103.875,144.952637 102.397949,146.661621 102.397949,149.652344 C102.397949,152.643066 103.875,154.352051 106.121094,154.352051 Z M124.419434,154.22998 C126.628906,154.22998 128.105957,152.398926 128.105957,149.603516 C128.105957,146.808105 126.628906,144.952637 124.419434,144.952637 C122.234375,144.952637 120.806152,146.759277 120.806152,149.603516 C120.806152,152.447754 122.234375,154.22998 124.419434,154.22998 Z M124.492676,160.785156 C121.697266,160.785156 119.487793,159.210449 119.133789,157.049805 L121.318848,157.049805 C121.733887,158.209473 122.991211,158.978516 124.578125,158.978516 C126.775391,158.978516 128.105957,157.708984 128.105957,155.816895 L128.105957,153.814941 L128.057129,153.814941 C127.275879,155.194336 125.774414,156.097656 123.992188,156.097656 C120.757324,156.097656 118.633301,153.546387 118.633301,149.603516 C118.633301,145.624023 120.757324,143.084961 124.041016,143.084961 C125.835449,143.084961 127.324707,143.963867 128.166992,145.440918 L128.203613,145.440918 L128.203613,143.304688 L130.22998,143.304688 L130.22998,155.743652 C130.22998,158.770996 127.996094,160.785156 124.492676,160.785156 Z M138.25,156.219727 C134.734375,156.219727 132.366211,153.692871 132.366211,149.652344 C132.366211,145.599609 134.734375,143.084961 138.25,143.084961 C141.753418,143.084961 144.121582,145.599609 144.121582,149.652344 C144.121582,153.692871 141.753418,156.219727 138.25,156.219727 Z M138.25,154.352051 C140.496094,154.352051 141.960938,152.643066 141.960938,149.652344 C141.960938,146.661621 140.496094,144.952637 138.25,144.952637 C136.003906,144.952637 134.526855,146.661621 134.526855,149.652344 C134.526855,152.643066 136.003906,154.352051 138.25,154.352051 Z M150.444824,154.413086 C152.446777,154.413086 153.984863,153.009277 153.984863,151.178223 L153.984863,150.140625 L150.591309,150.348145 C148.882324,150.458008 147.905762,151.214844 147.905762,152.411133 C147.905762,153.619629 148.918945,154.413086 150.444824,154.413086 Z M149.96875,156.219727 C147.441895,156.219727 145.745117,154.693848 145.745117,152.411133 C145.745117,150.238281 147.41748,148.871094 150.347168,148.700195 L153.984863,148.492676 L153.984863,147.430664 C153.984863,145.880371 152.959473,144.952637 151.20166,144.952637 C149.565918,144.952637 148.540527,145.72168 148.271973,146.966797 L146.221191,146.966797 C146.367676,144.769531 148.247559,143.084961 151.250488,143.084961 C154.229004,143.084961 156.108887,144.696289 156.108887,147.223145 L156.108887,156 L154.094727,156 L154.094727,153.814941 L154.045898,153.814941 C153.289062,155.267578 151.677734,156.219727 149.96875,156.219727 Z M158.916504,156 L158.916504,138.385254 L161.040527,138.385254 L161.040527,156 L158.916504,156 Z M163.689453,146.808105 C163.689453,144.635254 165.630371,143.084961 168.425781,143.084961 C171.050293,143.084961 172.979004,144.647461 173.07666,146.795898 L171.050293,146.795898 C170.903809,145.575195 169.915039,144.818359 168.352539,144.818359 C166.802246,144.818359 165.776855,145.587402 165.776855,146.698242 C165.776855,147.577148 166.448242,148.163086 167.888672,148.529297 L169.854004,149.005371 C172.41748,149.652344 173.345215,150.580078 173.345215,152.447754 C173.345215,154.657227 171.257812,156.219727 168.291504,156.219727 C165.508301,156.219727 163.567383,154.706055 163.347656,152.459961 L165.47168,152.459961 C165.703613,153.77832 166.70459,154.486328 168.425781,154.486328 C170.146973,154.486328 171.208984,153.753906 171.208984,152.606445 C171.208984,151.703125 170.684082,151.214844 169.255859,150.836426 L167.021973,150.262695 C164.788086,149.688965 163.689453,148.541504 163.689453,146.808105 Z M181.719238,160.748535 C181.462891,160.748535 181.035645,160.724121 180.803711,160.675293 L180.803711,158.893066 C181.035645,158.941895 181.365234,158.954102 181.633789,158.954102 C182.817871,158.954102 183.477051,158.380371 183.965332,156.90332 L184.258301,156.012207 L179.570801,143.304688 L181.841309,143.304688 L185.356934,153.875977 L185.393555,153.875977 L188.90918,143.304688 L191.143066,143.304688 L186.150391,156.891113 C185.063965,159.857422 184.01416,160.748535 181.719238,160.748535 Z M197.539551,144.928223 C195.549805,144.928223 194.158203,146.454102 194.023926,148.565918 L200.920898,148.565918 C200.87207,146.441895 199.541504,144.928223 197.539551,144.928223 Z M200.87207,152.362305 L202.959473,152.362305 C202.593262,154.583984 200.444824,156.219727 197.673828,156.219727 C194.036133,156.219727 191.82666,153.692871 191.82666,149.701172 C191.82666,145.758301 194.072754,143.084961 197.576172,143.084961 C201.006348,143.084961 203.118164,145.575195 203.118164,149.42041 L203.118164,150.226074 L194.011719,150.226074 L194.011719,150.348145 C194.011719,152.777344 195.439941,154.376465 197.722656,154.376465 C199.333984,154.376465 200.518066,153.558594 200.87207,152.362305 Z M205.937988,140.240723 L208.062012,140.240723 L208.062012,143.304688 L210.527832,143.304688 L210.527832,145.050293 L208.062012,145.050293 L208.062012,152.594238 C208.062012,153.753906 208.550293,154.278809 209.636719,154.278809 C209.880859,154.278809 210.369141,154.242188 210.515625,154.217773 L210.515625,156 C210.259277,156.061035 209.67334,156.097656 209.172852,156.097656 C206.841309,156.097656 205.937988,155.145508 205.937988,152.704102 L205.937988,145.050293 L204.045898,145.050293 L204.045898,143.304688 L205.937988,143.304688 L205.937988,140.240723 Z M214.580566,156.12207 C213.799316,156.12207 213.188965,155.511719 213.188965,154.730469 C213.188965,153.949219 213.799316,153.338867 214.580566,153.338867 C215.361816,153.338867 215.972168,153.949219 215.972168,154.730469 C215.972168,155.511719 215.361816,156.12207 214.580566,156.12207 Z" id="No-goals-yet." fill="#000000"></path>
    </g>
</svg>